<?xml version="1.0" encoding="utf-8"?>
<!-- Generator: Adobe Illustrator 24.0.1, SVG Export Plug-In . SVG Version: 6.00 Build 0)  -->
<svg version="1.0" id="Capa_1" xmlns="http://www.w3.org/2000/svg" xmlns:xlink="http://www.w3.org/1999/xlink" x="0px" y="0px"
	 viewBox="0 0 366.8 835.8" style="enable-background:new 0 0 366.8 835.8;" xml:space="preserve">
<style type="text/css">
	.st0{fill:#FFFFFF;}
</style>
<g>
	<path class="st0" d="M366.8,424.9V38.4L220,0.2V0l-0.3,0.1l-0.1,0v0.1l-15.9,4.3v537.7l-117-4.9L0,540.2V555l0.7,0.1v229.5l7.8,2.4
		v0l11.8-3.2V556.6l183.4,14.6v16.1L35.1,571.6v206.1l8.2,1.8v15.1l2.2,0.7v0l3.3-0.9v-13.7l37,8.3v15.3l2.2,0.7v0l3.3-0.9v-13.9
		l39.8,8.9v15.2l2.2,0.7v0l3.3-0.9v-13.7l41.8,9.3v16.6l2.2,0.7v0l3.3-0.9V811l19.6,4.4v15.4l16.3,5v-0.1l24.6-5.4v-12.1l25.6-6
		v10.7l2.3,0.5v0l3.5-0.7v-11.9l8.5-2V585.4l-40,2.8V571l102-8v-14.8l-85.5-3.6l103.7-6.9v-97l-120.3,0.9v-16.1L366.8,424.9z
		 M225.6,7.8l135.3,35.3V419l-135.3,0.6V7.8z M86.7,540.3l117,4.9v8.2l-150.5-12L86.7,540.3z M40.1,730v-151l163.4,15.4l0.2-3.2
		v170.3L40.1,730z M244.6,812v-91.9l34-4.6V804L244.6,812z M278.6,715.4L278.6,715.4h-0.3H278.6z M269.7,592.4v121.3l-25.1,3.4
		V594.2L269.7,592.4z M244.6,553.1v-6.2l52,2.2L244.6,553.1z"/>
	<path class="st0" d="M52.5,592.8v128.2L192.4,748c-0.7,0-1.1-142.1-1.1-142.1L52.5,592.8z"/>
	<polygon class="st0" points="251.5,800.7 274.2,795.4 274.2,757.1 251.5,760.8 	"/>
	<polygon class="st0" points="251.5,755.3 274.2,751.6 274.2,727 251.5,730 	"/>
</g>
</svg>
