<?xml version="1.0" encoding="utf-8"?>
<!-- Generator: Adobe Illustrator 24.0.1, SVG Export Plug-In . SVG Version: 6.00 Build 0)  -->
<svg version="1.0" id="Capa_1" xmlns="http://www.w3.org/2000/svg" xmlns:xlink="http://www.w3.org/1999/xlink" x="0px" y="0px"
	 viewBox="0 0 108.6 172.4" style="enable-background:new 0 0 108.6 172.4;" xml:space="preserve">
<style type="text/css">
	.st0{fill:#FFFFFF;}
</style>
<path class="st0" d="M11.7,94.3v-9h2.4V64.2h-2.4v-2.3h1.1c0.7,0,1.3-0.6,1.3-1.3V1.3c0-0.7-0.6-1.3-1.3-1.3H1.3C0.6,0,0,0.6,0,1.3
	v59.3c0,0.7,0.6,1.3,1.3,1.3h1.1v2.3H0v21.1h2.4V96l0,0v76.5l0,0h9.3h1V99.6h7.2v2.6c-2.2,0.1-4,1.9-4,4.2v39.5c0,2.2,1.8,4.1,4,4.2
	v2.6h-2.4v5.3h1.9v14.5h4.1v-14.5h19.1v14.5h4.1v-14.5h19.1v14.5h4.1v-14.5h19.1v14.5H93v-14.5h2.6v-5.3h-2V150c2-0.3,3.6-2,3.6-4.1
	v-39.5c0-2.1-1.6-3.9-3.6-4.1v-2.6h10.9v72.8h4.2V99.6V96v-1.7H11.7z M33.8,102.2v-2.5h9.9v2.5H33.8z M45.8,99.6h9.9v2.5h-9.9V99.6z
	 M57.7,99.6h9.9v2.5h-9.9V99.6z M69.6,99.6h9.9v2.5h-9.9V99.6z M81.6,99.6h9.8v2.5h-9.8V99.6z M5.5,61.9h3.1v2.3H5.5V61.9z
	 M5.5,85.3h3.1v9.1H5.5V85.3z M31.8,99.6v2.5h-9.9v-2.5H31.8z M21.9,152.6V150h9.9v2.5H21.9z M33.8,152.6V150h9.9v2.5H33.8z
	 M45.8,152.6V150h9.9v2.5H45.8z M57.7,152.6V150h9.9v2.5H57.7z M69.6,152.6V150h9.9v2.5H69.6z M81.6,152.6V150h9.8v2.5H81.6z
	 M94.4,106.4v39.5c0,0.8-0.7,1.5-1.5,1.5H20.1c-0.8,0-1.5-0.7-1.5-1.5v-39.5c0-0.8,0.7-1.5,1.5-1.5H93
	C93.8,104.9,94.4,105.6,94.4,106.4z"/>
</svg>
